<svg width="222" height="122" viewBox="0 0 222 122" fill="none" xmlns="http://www.w3.org/2000/svg">
<path d="M0 0H222V122H0V0Z" fill="#617D4E"/>
<path d="M44.3954 26.8431C44.3954 30.8492 43.6421 34.3169 42.1354 37.2462C40.6718 40.1323 38.7131 42.5231 36.2594 44.4185C33.8488 46.2708 31.1152 47.6492 28.0589 48.5538C25.0025 49.4154 21.903 49.8462 18.7606 49.8462H1.71371V4.09846H18.244C21.4726 4.09846 24.6581 4.48615 27.8006 5.26154C30.943 5.99385 33.7411 7.24308 36.1949 9.00923C38.6486 10.7323 40.6288 13.0585 42.1354 15.9877C43.6421 18.9169 44.3954 22.5354 44.3954 26.8431ZM32.9017 26.8431C32.9017 24.2585 32.4712 22.1262 31.6103 20.4462C30.7924 18.7231 29.6731 17.3662 28.2526 16.3754C26.875 15.3415 25.2823 14.6092 23.4743 14.1785C21.7093 13.7477 19.8798 13.5323 17.9857 13.5323H12.4971V40.2831H17.7274C19.7076 40.2831 21.6017 40.0677 23.4097 39.6369C25.2608 39.1631 26.875 38.4092 28.2526 37.3754C29.6731 36.3415 30.7924 34.9631 31.6103 33.24C32.4712 31.5169 32.9017 29.3846 32.9017 26.8431ZM51.2669 49.8462V17.6677C51.2669 17.6677 54.1235 19.5615 56.5618 19.5C59 19.4385 61.8566 17.6677 61.8566 17.6677V49.8462H51.2669ZM89.2284 35.8246H87.8725C86.7102 35.8246 85.5264 35.8892 84.321 36.0185C83.1587 36.1046 82.1041 36.2985 81.157 36.6C80.253 36.9015 79.4997 37.3538 78.897 37.9569C78.2944 38.5169 77.993 39.2708 77.993 40.2185C77.993 40.8215 78.1222 41.3385 78.3804 41.7692C78.6818 42.2 79.0477 42.5446 79.4782 42.8031C79.9086 43.0615 80.4037 43.2554 80.9633 43.3846C81.5229 43.4708 82.061 43.5138 82.5776 43.5138C84.73 43.5138 86.3658 42.9323 87.485 41.7692C88.6473 40.5631 89.2284 38.9477 89.2284 36.9231V35.8246ZM69.7924 22.0615C71.6865 20.2523 73.882 18.8954 76.3787 17.9908C78.9185 17.0862 81.5014 16.6338 84.1273 16.6338C86.8393 16.6338 89.1208 16.9785 90.9719 17.6677C92.866 18.3138 94.3942 19.3477 95.5564 20.7692C96.7187 22.1477 97.5582 23.9138 98.0747 26.0677C98.6344 28.1785 98.9142 30.6985 98.9142 33.6277V49.8462H89.2284V46.4215H89.0347C88.2168 47.7569 86.9684 48.7908 85.2896 49.5231C83.6538 50.2554 81.8673 50.6215 79.9302 50.6215C78.6387 50.6215 77.3043 50.4492 75.9267 50.1046C74.5492 49.76 73.2793 49.2 72.117 48.4246C70.9978 47.6492 70.0723 46.6154 69.3404 45.3231C68.6086 44.0308 68.2422 42.4369 68.2422 40.5415C68.2422 38.2154 68.8669 36.3415 70.1153 34.92C71.4067 33.4985 73.0425 32.4 75.0227 31.6246C77.046 30.8492 79.2844 30.3323 81.7382 30.0738C84.1919 29.8154 86.581 29.6862 88.9056 29.6862V29.1692C88.9056 27.5754 88.346 26.4123 87.2267 25.68C86.1075 24.9046 84.73 24.5169 83.0942 24.5169C81.5875 24.5169 80.1239 24.84 78.7033 25.4862C77.3258 26.1323 76.142 26.9077 75.1519 27.8123L69.7924 22.0615ZM118.893 44.16C118.893 45.9692 118.247 47.4769 116.955 48.6831C115.707 49.8892 114.2 50.4923 112.435 50.4923C111.531 50.4923 110.67 50.32 109.853 49.9754C109.078 49.6738 108.389 49.2431 107.786 48.6831C107.184 48.1231 106.71 47.4769 106.366 46.7446C106.021 45.9692 105.849 45.1292 105.849 44.2246C105.849 43.3631 106.021 42.5446 106.366 41.7692C106.71 40.9938 107.184 40.3262 107.786 39.7662C108.389 39.1631 109.078 38.6892 109.853 38.3446C110.67 38 111.531 37.8277 112.435 37.8277C114.2 37.8277 115.707 38.4308 116.955 39.6369C118.247 40.8431 118.893 42.3508 118.893 44.16ZM126.306 49.8462V0.996918H137.025V49.8462H126.306ZM179.503 33.6277C179.503 36.2554 179.03 38.6462 178.083 40.8C177.135 42.9108 175.844 44.72 174.208 46.2277C172.572 47.6923 170.678 48.8338 168.526 49.6523C166.374 50.4708 164.071 50.88 161.617 50.88C159.206 50.88 156.903 50.4708 154.708 49.6523C152.555 48.8338 150.661 47.6923 149.025 46.2277C147.433 44.72 146.163 42.9108 145.216 40.8C144.269 38.6462 143.795 36.2554 143.795 33.6277C143.795 31 144.269 28.6308 145.216 26.52C146.163 24.4092 147.433 22.6215 149.025 21.1569C150.661 19.6923 152.555 18.5723 154.708 17.7969C156.903 17.0215 159.206 16.6338 161.617 16.6338C164.071 16.6338 166.374 17.0215 168.526 17.7969C170.678 18.5723 172.572 19.6923 174.208 21.1569C175.844 22.6215 177.135 24.4092 178.083 26.52C179.03 28.6308 179.503 31 179.503 33.6277ZM169.301 33.6277C169.301 32.5938 169.129 31.5815 168.784 30.5908C168.44 29.6 167.945 28.7385 167.299 28.0062C166.653 27.2308 165.857 26.6062 164.91 26.1323C163.963 25.6585 162.865 25.4215 161.617 25.4215C160.368 25.4215 159.271 25.6585 158.324 26.1323C157.377 26.6062 156.58 27.2308 155.935 28.0062C155.332 28.7385 154.858 29.6 154.514 30.5908C154.213 31.5815 154.062 32.5938 154.062 33.6277C154.062 34.6615 154.213 35.6738 154.514 36.6646C154.858 37.6554 155.353 38.56 155.999 39.3785C156.645 40.1538 157.441 40.7785 158.388 41.2523C159.335 41.7262 160.433 41.9631 161.681 41.9631C162.93 41.9631 164.027 41.7262 164.975 41.2523C165.922 40.7785 166.718 40.1538 167.364 39.3785C168.009 38.56 168.483 37.6554 168.784 36.6646C169.129 35.6738 169.301 34.6615 169.301 33.6277ZM220.301 46.8092C220.301 49.9539 219.849 52.6892 218.945 55.0154C218.041 57.3415 216.772 59.2585 215.136 60.7662C213.5 62.3169 211.498 63.4585 209.131 64.1908C206.806 64.9661 204.223 65.3539 201.382 65.3539C198.541 65.3539 195.614 64.9231 192.6 64.0615C189.63 63.2 187.047 61.9508 184.852 60.3138L190.147 52.7538C191.696 54.1323 193.397 55.1446 195.248 55.7908C197.142 56.48 198.993 56.8246 200.801 56.8246C203.9 56.8246 206.182 56.0062 207.645 54.3692C209.152 52.7323 209.905 50.5569 209.905 47.8431V45.9046H209.712C208.722 47.1969 207.387 48.2308 205.708 49.0061C204.029 49.7815 202.114 50.1692 199.961 50.1692C197.508 50.1692 195.334 49.7385 193.44 48.8769C191.546 47.9723 189.931 46.7662 188.597 45.2585C187.305 43.7508 186.315 42.0062 185.627 40.0246C184.938 38 184.593 35.8677 184.593 33.6277C184.593 31.3877 184.938 29.2554 185.627 27.2308C186.315 25.2062 187.305 23.4185 188.597 21.8677C189.931 20.3169 191.546 19.0892 193.44 18.1846C195.334 17.2369 197.486 16.7631 199.897 16.7631C201.92 16.7631 203.857 17.1723 205.708 17.9908C207.559 18.8092 209.044 20.08 210.164 21.8031H210.293V17.6677H220.301V46.8092ZM210.228 33.5631C210.228 32.4862 210.035 31.4523 209.647 30.4615C209.303 29.4708 208.786 28.6092 208.097 27.8769C207.409 27.1015 206.591 26.4985 205.644 26.0677C204.697 25.6369 203.62 25.4215 202.415 25.4215C201.21 25.4215 200.134 25.6369 199.187 26.0677C198.283 26.4985 197.508 27.08 196.862 27.8123C196.216 28.5446 195.721 29.4062 195.377 30.3969C195.033 31.3877 194.86 32.4431 194.86 33.5631C194.86 34.64 195.033 35.6738 195.377 36.6646C195.721 37.6554 196.216 38.5385 196.862 39.3138C197.508 40.0462 198.283 40.6492 199.187 41.1231C200.134 41.5538 201.21 41.7692 202.415 41.7692C203.62 41.7692 204.697 41.5538 205.644 41.1231C206.634 40.6492 207.452 40.0462 208.097 39.3138C208.786 38.5815 209.303 37.72 209.647 36.7292C210.035 35.7385 210.228 34.6831 210.228 33.5631Z" fill="#F8D0D2"/>
<path d="M56.5 16C60.0899 16 63 11.3486 63 7.66667C63 3.98477 60.0899 1 56.5 1C52.9101 1 50 3.98477 50 7.66667C50 11.3486 52.9101 16 56.5 16Z" fill="#F8D0D2"/>
<path d="M44.4277 95.3569C44.4277 91.3508 43.6738 87.8831 42.1662 84.9538C40.7015 82.0677 38.7415 79.6769 36.2862 77.7815C33.8738 75.9292 31.1385 74.5508 28.08 73.6461C25.0215 72.7846 21.92 72.3538 18.7754 72.3538H1.71692V118.102H18.2585C21.4892 118.102 24.6769 117.714 27.8215 116.938C30.9662 116.206 33.7662 114.957 36.2215 113.191C38.6769 111.468 40.6585 109.142 42.1662 106.212C43.6738 103.283 44.4277 99.6646 44.4277 95.3569ZM32.9262 95.3569C32.9262 97.9415 32.4954 100.074 31.6338 101.754C30.8154 103.477 29.6954 104.834 28.2738 105.825C26.8954 106.858 25.3015 107.591 23.4923 108.022C21.7262 108.452 19.8954 108.668 18 108.668H12.5077V81.9169H17.7415C19.7231 81.9169 21.6185 82.1323 23.4277 82.5631C25.28 83.0369 26.8954 83.7908 28.2738 84.8246C29.6954 85.8585 30.8154 87.2369 31.6338 88.96C32.4954 90.6831 32.9262 92.8154 32.9262 95.3569ZM51.3038 72.3538V104.532C51.3038 104.532 54.1624 102.638 56.6023 102.7C59.0422 102.762 61.9008 104.532 61.9008 104.532V72.3538H51.3038ZM89.2912 86.3754H87.9343C86.7712 86.3754 85.5866 86.3108 84.3805 86.1815C83.2174 86.0954 82.162 85.9015 81.2143 85.6C80.3097 85.2985 79.5559 84.8461 78.9528 84.2431C78.3497 83.6831 78.0482 82.9292 78.0482 81.9815C78.0482 81.3785 78.1774 80.8615 78.4359 80.4308C78.7374 80 79.1035 79.6554 79.5343 79.3969C79.9651 79.1385 80.4605 78.9446 81.0205 78.8154C81.5805 78.7292 82.1189 78.6861 82.6358 78.6861C84.7897 78.6861 86.4266 79.2677 87.5466 80.4308C88.7097 81.6369 89.2912 83.2523 89.2912 85.2769V86.3754ZM69.842 100.138C71.7374 101.948 73.9343 103.305 76.4328 104.209C78.9743 105.114 81.5589 105.566 84.1866 105.566C86.9005 105.566 89.1835 105.222 91.0359 104.532C92.9312 103.886 94.4605 102.852 95.6236 101.431C96.7866 100.052 97.6266 98.2861 98.1435 96.1323C98.7035 94.0215 98.9836 91.5015 98.9836 88.5723V72.3538H89.2912V75.7785H89.0974C88.2789 74.4431 87.0297 73.4092 85.3497 72.6769C83.7128 71.9446 81.9251 71.5785 79.9866 71.5785C78.6943 71.5785 77.3589 71.7508 75.9805 72.0954C74.602 72.44 73.3312 73 72.1682 73.7754C71.0482 74.5508 70.122 75.5846 69.3897 76.8769C68.6574 78.1692 68.2907 79.7631 68.2907 81.6585C68.2907 83.9846 68.9158 85.8585 70.1651 87.28C71.4574 88.7015 73.0943 89.8 75.0758 90.5754C77.1005 91.3508 79.3405 91.8677 81.7958 92.1262C84.2512 92.3846 86.642 92.5138 88.9682 92.5138V93.0308C88.9682 94.6246 88.4082 95.7877 87.2882 96.52C86.1682 97.2954 84.7897 97.6831 83.1528 97.6831C81.6451 97.6831 80.1805 97.36 78.7589 96.7138C77.3805 96.0677 76.1958 95.2923 75.2051 94.3877L69.842 100.138ZM118.976 78.04C118.976 76.2308 118.329 74.7231 117.037 73.5169C115.788 72.3108 114.28 71.7077 112.514 71.7077C111.609 71.7077 110.748 71.88 109.929 72.2246C109.154 72.5261 108.465 72.9569 107.862 73.5169C107.259 74.0769 106.785 74.7231 106.44 75.4554C106.096 76.2308 105.923 77.0708 105.923 77.9754C105.923 78.8369 106.096 79.6554 106.44 80.4308C106.785 81.2062 107.259 81.8738 107.862 82.4338C108.465 83.0369 109.154 83.5108 109.929 83.8554C110.748 84.2 111.609 84.3723 112.514 84.3723C114.28 84.3723 115.788 83.7692 117.037 82.5631C118.329 81.3569 118.976 79.8492 118.976 78.04ZM126.394 72.3538V121.203H137.12V72.3538H126.394ZM179.627 88.5723C179.627 85.9446 179.153 83.5538 178.206 81.4C177.258 79.2892 175.966 77.48 174.329 75.9723C172.692 74.5077 170.797 73.3661 168.643 72.5477C166.489 71.7292 164.184 71.32 161.729 71.32C159.317 71.32 157.012 71.7292 154.815 72.5477C152.661 73.3661 150.766 74.5077 149.129 75.9723C147.535 77.48 146.264 79.2892 145.317 81.4C144.369 83.5538 143.895 85.9446 143.895 88.5723C143.895 91.2 144.369 93.5692 145.317 95.68C146.264 97.7908 147.535 99.5785 149.129 101.043C150.766 102.508 152.661 103.628 154.815 104.403C157.012 105.178 159.317 105.566 161.729 105.566C164.184 105.566 166.489 105.178 168.643 104.403C170.797 103.628 172.692 102.508 174.329 101.043C175.966 99.5785 177.258 97.7908 178.206 95.68C179.153 93.5692 179.627 91.2 179.627 88.5723ZM169.418 88.5723C169.418 89.6061 169.246 90.6185 168.901 91.6092C168.557 92.6 168.061 93.4615 167.415 94.1938C166.769 94.9692 165.972 95.5938 165.024 96.0677C164.077 96.5415 162.978 96.7785 161.729 96.7785C160.48 96.7785 159.381 96.5415 158.433 96.0677C157.486 95.5938 156.689 94.9692 156.043 94.1938C155.44 93.4615 154.966 92.6 154.621 91.6092C154.32 90.6185 154.169 89.6061 154.169 88.5723C154.169 87.5385 154.32 86.5261 154.621 85.5354C154.966 84.5446 155.461 83.64 156.107 82.8215C156.753 82.0461 157.55 81.4215 158.498 80.9477C159.446 80.4738 160.544 80.2369 161.793 80.2369C163.043 80.2369 164.141 80.4738 165.089 80.9477C166.037 81.4215 166.833 82.0461 167.48 82.8215C168.126 83.64 168.6 84.5446 168.901 85.5354C169.246 86.5261 169.418 87.5385 169.418 88.5723ZM220.453 75.3908C220.453 72.2461 220.001 69.5108 219.097 67.1846C218.192 64.8585 216.921 62.9415 215.284 61.4338C213.647 59.8831 211.644 58.7415 209.275 58.0092C206.949 57.2338 204.364 56.8461 201.521 56.8461C198.678 56.8461 195.749 57.2769 192.733 58.1385C189.761 59 187.177 60.2492 184.98 61.8862L190.278 69.4461C191.829 68.0677 193.53 67.0554 195.383 66.4092C197.278 65.72 199.13 65.3754 200.94 65.3754C204.041 65.3754 206.324 66.1938 207.789 67.8308C209.297 69.4677 210.05 71.6431 210.05 74.3569V76.2954H209.857C208.866 75.0031 207.53 73.9692 205.85 73.1938C204.17 72.4185 202.253 72.0308 200.1 72.0308C197.644 72.0308 195.469 72.4615 193.573 73.3231C191.678 74.2277 190.063 75.4338 188.727 76.9415C187.435 78.4492 186.444 80.1938 185.755 82.1754C185.066 84.2 184.721 86.3323 184.721 88.5723C184.721 90.8123 185.066 92.9446 185.755 94.9692C186.444 96.9938 187.435 98.7815 188.727 100.332C190.063 101.883 191.678 103.111 193.573 104.015C195.469 104.963 197.623 105.437 200.035 105.437C202.06 105.437 203.998 105.028 205.85 104.209C207.703 103.391 209.189 102.12 210.309 100.397H210.438V104.532H220.453V75.3908ZM210.373 88.6369C210.373 89.7138 210.18 90.7477 209.792 91.7385C209.447 92.7292 208.93 93.5908 208.241 94.3231C207.552 95.0985 206.733 95.7015 205.786 96.1323C204.838 96.5631 203.761 96.7785 202.555 96.7785C201.349 96.7785 200.272 96.5631 199.324 96.1323C198.42 95.7015 197.644 95.12 196.998 94.3877C196.352 93.6554 195.857 92.7938 195.512 91.8031C195.167 90.8123 194.995 89.7569 194.995 88.6369C194.995 87.56 195.167 86.5261 195.512 85.5354C195.857 84.5446 196.352 83.6615 196.998 82.8862C197.644 82.1538 198.42 81.5508 199.324 81.0769C200.272 80.6462 201.349 80.4308 202.555 80.4308C203.761 80.4308 204.838 80.6462 205.786 81.0769C206.777 81.5508 207.595 82.1538 208.241 82.8862C208.93 83.6185 209.447 84.48 209.792 85.4708C210.18 86.4615 210.373 87.5169 210.373 88.6369Z" fill="#869E79"/>
<path d="M56.5405 106.195C60.1328 106.195 63.0449 110.849 63.0449 114.534C63.0449 118.218 60.1328 121.205 56.5405 121.205C52.9482 121.205 50.0361 118.218 50.0361 114.534C50.0361 110.849 52.9482 106.195 56.5405 106.195Z" fill="#869E79"/>
</svg>
